<?xml version="1.0" encoding="utf-8"?>
<!-- Generator: Adobe Illustrator 27.0.1, SVG Export Plug-In . SVG Version: 6.00 Build 0)  -->
<svg version="1.1" id="Camada_1" xmlns="http://www.w3.org/2000/svg" xmlns:xlink="http://www.w3.org/1999/xlink" x="0px" y="0px"
	 viewBox="0 0 800 800" style="enable-background:new 0 0 800 800;" xml:space="preserve">
<style type="text/css">
	.st0{fill:#00EFC5;}
</style>
<g id="SVGRepo_bgCarrier">
</g>
<g id="SVGRepo_tracerCarrier">
</g>
<g id="SVGRepo_iconCarrier">
	<path class="st0" d="M0,100.9v598.2C0,755.6,44.4,800,100.9,800h598.2c27.6,0,54-13.2,70.9-30c18-18,30-40.9,30-70.9V100.9
		C800,44.4,755.6,0,699.1,0H100.9C70.9,0,48,12,30,30C13.2,46.9,0,73.3,0,100.9z M108.1,180.2c0-38.4,31.2-72.1,69.7-72.1
		c39.6,0,72.1,33.6,72.1,72.1c0,39.6-32.4,70.9-72.1,70.9C139.4,251,108.1,219.8,108.1,180.2z M301.5,673.8V307.5
		c0-8.4,8.4-15.6,14.4-15.6H418c14.4,0,14.4,16.8,14.4,27.6c28.8-28.8,66.1-36.1,104.5-36.1c93.7,0,153.8,44.4,153.8,142.9v247.5
		c0,8.4-7.2,15.6-14.4,15.6H570.6c-8.4,0-14.4-8.4-14.4-15.6V450.4c0-37.2-10.8-57.7-52.9-57.7c-52.9,0-66.1,34.8-66.1,81.7v199.4
		c0,8.4-8.4,15.6-16.8,15.6H315.9C309.9,689.5,301.5,681.1,301.5,673.8L301.5,673.8z M110.5,673.8V307.5c0-8.4,8.4-15.6,14.4-15.6
		h104.5c9.6,0,15.6,6,15.6,15.6v366.3c0,8.4-7.2,15.6-15.6,15.6H124.9C117.7,689.5,110.5,681,110.5,673.8z"/>
</g>
</svg>
